<?xml version="1.0" encoding="utf-8"?>
<!-- Generator: Adobe Illustrator 15.0.2, SVG Export Plug-In . SVG Version: 6.00 Build 0)  -->
<!DOCTYPE svg PUBLIC "-//W3C//DTD SVG 1.1//EN" "http://www.w3.org/Graphics/SVG/1.1/DTD/svg11.dtd">
<svg version="1.1" id="Layer_1" xmlns="http://www.w3.org/2000/svg" xmlns:xlink="http://www.w3.org/1999/xlink" x="0px" y="0px"
	 width="785.9px" height="89px" viewBox="0 0 785.9 89" enable-background="new 0 0 785.9 89" xml:space="preserve">
<g>
	<path fill="#D6EFFB" d="M285.2,54h-5V39.8c1.7-0.4,3.3-0.9,5-1.4v-4c-9,3.2-18.9,4.8-29.4,4.8c-30.1,0-56.3-13.5-65.3-39l-0.3,0.1
		V0H176v0.6v9.5v44v8V89h14.2V62.1h94.9V54z M199,54h-8.7V9.3c2.4,4.5,5.4,8.5,8.7,12.1V54z M214.8,54H201V23.5
		c4.1,4,8.8,7.2,13.9,9.9V54z M230.7,54h-13.9V34.6c4.3,2.1,9,3.7,13.9,5V54z M246.6,54h-13.9V40.1c4.5,1.1,9.1,1.9,13.9,2.3V54z
		 M262.4,54h-13.9V42.5c2.4,0.2,4.8,0.4,7.3,0.4c2.2,0,4.4-0.2,6.6-0.3V54z M278.3,54h-13.9V42.4c4.8-0.4,9.4-1.1,13.9-2.1V54z"/>
</g>
<g>
	<g>
		<path fill="#D6EFFB" d="M190.2,0.1l-0.2,0.1V0h-14.3v0.1l-0.1-0.1c-8.9,25.6-35.2,39.1-65.3,39.1c-30.1,0-56.3-13.5-65.3-39
			l-0.3,0.1V0H30.4v0.6C25.2,14.9,14.3,26.8,0,34.3v4.2c2.6-1.2,5-2.7,7.4-4.3V54H0.1v8.1h30.3V89h14.2V62.1h131V89h14.3V62.1h0.3
			v-8 M20.5,54H9.3V33.1c4.1-2.8,7.8-6.2,11.1-9.7V54z M30.4,54h-8V21.2c3-3.5,5.8-7.1,8-11.1V54z M53.4,54h-8.7V9.3
			c2.4,4.5,5.4,8.5,8.7,12.1V54z M69.2,54H55.4V23.5c4.1,4,8.8,7.2,13.9,9.9V54z M85.1,54H71.2V34.6c4.3,2.1,9,3.7,13.9,5V54z
			 M100.9,54H87.1V40.1c4.5,1.1,9.1,1.9,13.9,2.3V54z M116.8,54h-13.9V42.5c2.4,0.2,4.8,0.4,7.3,0.4c2.2,0,4.4-0.2,6.6-0.3V54z
			 M132.7,54h-13.9V42.4c4.8-0.4,9.4-1.1,13.9-2.1V54z M148.5,54h-13.9V39.8c4.9-1.3,9.5-2.8,13.9-4.9V54z M164.4,54h-13.9V33.8
			c5.1-2.6,9.8-5.8,13.9-9.6V54z M175.6,54h-9.3V22.1c3.6-3.7,6.8-7.8,9.3-12.6V54z M189.9,54V9.3"/>
	</g>
</g>
<path fill="#D6EFFB" d="M296.1,33.8"/>
<g>
	<path fill="#D6EFFB" d="M500.8,62.1h94.9V89h14.2V62.1v-8v-44V0.6V0h-14.2v0.2l-0.3-0.1c-8.9,25.5-35.2,39-65.3,39
		c-10.5,0-20.4-1.6-29.4-4.8v4c1.6,0.5,3.3,1,5,1.4V54h-5V62.1z M587,21.3c3.3-3.6,6.4-7.5,8.7-12.1V54H587V21.3z M571.1,33.5
		c5.1-2.7,9.8-6,13.9-9.9V54h-13.9V33.5z M555.3,39.5c4.8-1.3,9.5-2.8,13.9-5V54h-13.9V39.5z M539.4,42.4c4.8-0.4,9.4-1.2,13.9-2.3
		V54h-13.9V42.4z M523.5,42.5c2.2,0.1,4.4,0.3,6.6,0.3c2.5,0,4.9-0.2,7.3-0.4V54h-13.9V42.5z M507.7,40.3c4.5,1,9.1,1.8,13.9,2.1V54
		h-13.9V40.3z"/>
</g>
<g>
	<g>
		<path fill="#D6EFFB" d="M595.7,54v8h0.3V89h14.3V62.1h131V89h14.2V62.1h30.3V54h-7.3V34.2c2.4,1.5,4.8,3,7.4,4.3v-4.2
			c-14.3-7.5-25.2-19.4-30.4-33.7V0h-14.2v0.2L741,0.1c-8.9,25.5-35.2,39-65.3,39c-30.1,0-56.3-13.5-65.3-39.1l-0.1,0.1V0H596v0.2
			l-0.2-0.1 M765.5,23.4c3.4,3.6,7,6.9,11.1,9.7V54h-11.1V23.4z M755.6,10.1c2.2,4,4.9,7.7,8,11.1V54h-8V10.1z M732.6,21.3
			c3.3-3.6,6.4-7.5,8.7-12.1V54h-8.7V21.3z M716.7,33.5c5.1-2.7,9.8-6,13.9-9.9V54h-13.9V33.5z M700.9,39.5c4.8-1.3,9.5-2.8,13.9-5
			V54h-13.9V39.5z M685,42.4c4.8-0.4,9.4-1.2,13.9-2.3V54H685V42.4z M669.2,42.5c2.2,0.1,4.4,0.3,6.6,0.3c2.5,0,4.9-0.2,7.3-0.4V54
			h-13.9V42.5z M653.3,40.3c4.5,1,9.1,1.8,13.9,2.1V54h-13.9V40.3z M637.5,34.9c4.3,2.1,9,3.6,13.9,4.9V54h-13.9V34.9z M621.6,24.3
			c4.1,3.8,8.8,7,13.9,9.6V54h-13.9V24.3z M610.3,9.5c2.5,4.8,5.7,8.9,9.3,12.6V54h-9.3V9.5z M596,9.3V54"/>
	</g>
</g>
</svg>
