<svg xmlns="http://www.w3.org/2000/svg" width="785.9" height="89" viewBox="0 0 785.9 89">
  <path fill="#D6EFFB" d="M285.2 54h-5V39.8c1.7-.4 3.3-.9 5-1.4v-4c-9 3.2-18.9 4.8-29.4 4.8-30.1 0-56.3-13.5-65.3-39l-.3.1V0H176v89h14.2V62.1h94.9V54zM199 54h-8.7V9.3c2.4 4.5 5.4 8.5 8.7 12.1V54zm15.8 0H201V23.5c4.1 4 8.8 7.2 13.9 9.9V54zm15.9 0h-13.9V34.6c4.3 2.1 9 3.7 13.9 5V54zm15.9 0h-13.9V40.1c4.5 1.1 9.1 1.9 13.9 2.3V54zm15.8 0h-13.9V42.5c2.4.2 4.8.4 7.3.4 2.2 0 4.4-.2 6.6-.3V54zm15.9 0h-13.9V42.4c4.8-.4 9.4-1.1 13.9-2.1V54z"/>
  <path fill="#D6EFFB" d="M190.2.1l-.2.1V0h-14.3v.1l-.1-.1c-8.9 25.6-35.2 39.1-65.3 39.1C80.2 39.1 54 25.6 45 .1l-.3.1V0H30.4v.6C25.2 14.9 14.3 26.8 0 34.3v4.2c2.6-1.2 5-2.7 7.4-4.3V54H.1v8.1h30.3V89h14.2V62.1h131V89h14.3V62.1h.3v-8M20.5 54H9.3V33.1c4.1-2.8 7.8-6.2 11.1-9.7V54zm9.9 0h-8V21.2c3-3.5 5.8-7.1 8-11.1V54zm23 0h-8.7V9.3c2.4 4.5 5.4 8.5 8.7 12.1V54zm15.8 0H55.4V23.5c4.1 4 8.8 7.2 13.9 9.9V54zm15.9 0H71.2V34.6c4.3 2.1 9 3.7 13.9 5V54zm15.8 0H87.1V40.1c4.5 1.1 9.1 1.9 13.9 2.3V54zm15.9 0h-13.9V42.5c2.4.2 4.8.4 7.3.4 2.2 0 4.4-.2 6.6-.3V54zm15.9 0h-13.9V42.4c4.8-.4 9.4-1.1 13.9-2.1V54zm15.8 0h-13.9V39.8c4.9-1.3 9.5-2.8 13.9-4.9V54zm15.9 0h-13.9V33.8c5.1-2.6 9.8-5.8 13.9-9.6V54zm11.2 0h-9.3V22.1c3.6-3.7 6.8-7.8 9.3-12.6V54zm14.3 0V9.3M296.1 33.8 500.8 62.1h94.9V89h14.2V0h-14.2v.2l-.3-.1c-8.9 25.5-35.2 39-65.3 39-10.5 0-20.4-1.6-29.4-4.8v4c1.6.5 3.3 1 5 1.4V54h-5v8.1zM587 21.3c3.3-3.6 6.4-7.5 8.7-12.1V54H587V21.3zm-15.9 12.2c5.1-2.7 9.8-6 13.9-9.9V54h-13.9V33.5zm-15.8 6c4.8-1.3 9.5-2.8 13.9-5V54h-13.9V39.5zm-15.9 2.9c4.8-.4 9.4-1.2 13.9-2.3V54h-13.9V42.4zm-15.9.1c2.2.1 4.4.3 6.6.3 2.5 0 4.9-.2 7.3-.4V54h-13.9V42.5zm-15.8-2.2c4.5 1 9.1 1.8 13.9 2.1V54h-13.9V40.3z"/>
  <path fill="#D6EFFB" d="M595.7 54v8h.3v27h14.3V62.1h131V89h14.2V62.1h30.3V54h-7.3V34.2c2.4 1.5 4.8 3 7.4 4.3v-4.2c-14.3-7.5-25.2-19.4-30.4-33.7V0h-14.2v.2l-.3-.1c-8.9 25.5-35.2 39-65.3 39-30.1 0-56.3-13.5-65.3-39.1l-.1.1V0H596v.2l-.2-.1m169.7 23.3c3.4 3.6 7 6.9 11.1 9.7V54h-11.1V23.4zm-9.9-13.3c2.2 4 4.9 7.7 8 11.1V54h-8V10.1zm-23 11.2c3.3-3.6 6.4-7.5 8.7-12.1V54h-8.7V21.3zm-15.9 12.2c5.1-2.7 9.8-6 13.9-9.9V54h-13.9V33.5zm-15.8 6c4.8-1.3 9.5-2.8 13.9-5V54h-13.9V39.5zM685 42.4c4.8-.4 9.4-1.2 13.9-2.3V54H685V42.4zm-15.8.1c2.2.1 4.4.3 6.6.3 2.5 0 4.9-.2 7.3-.4V54h-13.9V42.5zm-15.9-2.2c4.5 1 9.1 1.8 13.9 2.1V54h-13.9V40.3zm-15.8-5.4c4.3 2.1 9 3.6 13.9 4.9V54h-13.9V34.9zm-15.9-10.6c4.1 3.8 8.8 7 13.9 9.6V54h-13.9V24.3zM610.3 9.5c2.5 4.8 5.7 8.9 9.3 12.6V54h-9.3V9.5zM596 9.3V54"/>
</svg>
